<?xml version="1.0" encoding="UTF-8"?>
<svg version="1.1" viewBox="0 0 1017 827" width="1017" height="827" xmlns="http://www.w3.org/2000/svg">
<path transform="translate(0)" d="m0 0h1017v827h-1017z" fill="#0C0C0C"/>
<path transform="translate(845,340)" d="m0 0h19l16 5 10 7 7 6 7 10 5 11 3 14v9l-3 16-4 10-9 12-9 8-14 7-7 2-16 1-13-2-12-5-12-9-8-10-6-12-3-11v-21l5-16 7-11 10-10 12-7z" fill="#EDAA90"/>
<path transform="translate(715,334)" d="m0 0h17v120h-15l-2-12-7 6-9 6-8 3h-16l-11-4-8-6-8-9-5-11-2-7v-19l5-13 8-11 9-6 11-4 12-1 10 2 10 5 7 6 1 2z" fill="#DEABB3"/>
<path transform="translate(851,356)" d="m0 0 12 1 10 4 9 7 7 10 4 12v15l-4 13-7 11-7 6-11 5-4 1h-13l-11-4-6-4-8-8-6-12-2-9v-10l2-10 6-12 9-9 10-5z" fill="#0C0C0C"/>
<path transform="translate(471,367)" d="m0 0h19l10 3 9 6 6 10 2 7v61h-13l-2-4-1-8-13 10-10 4-5 1h-11l-10-3-7-5-5-9-1-4v-9l3-8 5-6 8-5 15-3 29-1-1-11-4-7-5-3-4-1h-14l-12 4-9 4-6-12 3-3 11-5z" fill="#76BCE2"/>
<path transform="translate(325,340)" d="m0 0h15l14 3 13 7 8 7-1 4-8 10-7-6-10-6-6-2h-20l-12 5-8 7-7 12-3 13v8l3 12 6 12 4 5 9 6 11 3h13l10-3 9-6 7-7 5 4 6 8-7 8-8 6-12 5-10 2h-12l-14-3-14-7-10-9-7-10-5-12-3-14v-9l3-14 7-14 9-10 7-6 12-6z" fill="#5BC4DE"/>
<path transform="translate(160,340)" d="m0 0 5 2 22 13 6 4v38l-22 13-8 5-5-1-29-17-1-1v-37l13-8z" fill="#5BC4DE"/>
<path transform="translate(541,368)" d="m0 0h17l1 58 4 9 4 4 7 2 12-1 8-4 6-7 3-8 1-6 1-47h17v86h-15l-1-2-1-10-7 6-5 4-9 4-4 1h-15l-11-4-7-6-4-8-2-7z" fill="#79BBE2"/>
<path transform="translate(114,427)" d="m0 0 6 1 27 16 1 1v36l-9 6-22 13-11-6-17-10-5-4v-35l16-10z" fill="#5BC4DE"/>
<path transform="translate(205,428)" d="m0 0 13 1 10 5 7 8 4 9 1 5v7l-3 10-5 8-7 6-9 4h-15l-10-4-8-7-6-12v-15l4-10 7-8 12-6z" fill="#5BC4DE"/>
<path transform="translate(681,382)" d="m0 0h10l9 3 6 4 6 8 2 5 1 13-4 13-8 9-8 4h-15l-10-5-6-7-4-8-1-4v-12l3-9 9-10z" fill="#0C0C0C"/>
<path transform="translate(884,349)" d="m0 0 5 2 8 7 7 10 5 11 3 14v9l-3 16-4 10-9 12-9 8-14 7-7 2-16 1-9-1-8-4 2-5v-4h2v-3h-2l-1-3-3-1-1-2-6-3-4-6v-3h2l7 8 5 4 9 4 4 1h13l11-4 9-6 7-10 4-10 1-5v-15l-4-12-7-10-3-5 6-5h2l-1-5z" fill="#EEBA8C"/>
<path transform="translate(395,335)" d="m0 0h17v75l1 26 1 4h13l1 2 1 11-7 3-11 1-9-3-5-4-2-4z" fill="#5BC4DE"/>
<path transform="translate(759,342)" d="m0 0h17v111l-1 1h-16z" fill="#EDAA90"/>
<path transform="translate(605,368)" d="m0 0h17v86h-15l-1-2-1-10-7 6-5 4-6 2-2-7 1-7 8-4 6-7 3-8 1-6z" fill="#A5ADD3"/>
<path transform="translate(160,352)" d="m0 0 5 2 17 10 1 1v26l-20 12-6-1-18-11-1-1v-25z" fill="#0C0C0C"/>
<path transform="translate(115,438)" d="m0 0 6 2 17 10v25l-10 7-10 6-5-1-17-11-1-1v-25l13-8z" fill="#0C0C0C"/>
<path transform="translate(202,439)" d="m0 0h12l8 4 5 6 2 5v11l-4 8-7 6-5 2h-9l-7-3-5-4-4-8v-13l5-8 5-4z" fill="#0C0C0C"/>
<path transform="translate(474,415)" d="m0 0h25l1 1v11l-4 8-8 6-7 3h-15l-7-4-3-6v-8l4-6 8-4z" fill="#0C0C0C"/>
<path transform="translate(651,381)" d="m0 0 1 2h2l2 9 2 7-1 4h-2l1 11 3 9v6h-2l2 5-4 6-2 4-6-8-5-12-1-4v-19l5-13z" fill="#A5ADD3"/>
<path transform="translate(718,334)" d="m0 0h14v119l-3-1-1-5 2-2v-37l-6 1-2-2 1-5 1-3-1-5 5-6 2-1v-26l-2 5-8 3-3-3v-8l1-5h2v-8l-3-5-1-5z" fill="#EDAA8E"/>
<path transform="translate(192,408)" d="m0 0 3 3 3 7v3l-4 2h-3l-5-12z" fill="#5BC4DE"/>
<path transform="translate(128,408)" d="m0 0 5 1 2 1-2 6-3 6-4-1-3-2 2-5z" fill="#5BC4DE"/>
<path transform="translate(157,447)" d="m0 0h12v8h-11l-1-1z" fill="#5BC4DE"/>
<path transform="translate(447,413)" d="m0 0 2 1-1 2 3 1v9l-10-3 2-5z" fill="#5BC4DE"/>
<path transform="translate(455,371)" d="m0 0h3l1 7h-2v2h-4l-4-6z" fill="#5BC4DE"/>
<path transform="translate(820,423)" d="m0 0h2l7 8 5 4 2 2h-5l-1-2-6-3-4-6z" fill="#ECB693"/>
<path transform="translate(440,436)" d="m0 0 1 2 5 1-1 8-3-3-2-4z" fill="#5BC4DE"/>
<path transform="translate(454,424)" d="m0 0h3l-1 10-4-2-1-6h3z" fill="#5BC4DE"/>
</svg>
