<?xml version="1.0" encoding="UTF-8"?>
<svg version="1.1" viewBox="0 0 1024 1024" width="1024" height="1024" xmlns="http://www.w3.org/2000/svg">
<path transform="translate(0)" d="m0 0h1024v1024h-1024z" fill="#F5F5F5"/>
<path transform="translate(849,431)" d="m0 0h21l13 4 8 4 10 8 8 10 6 13 2 8v22l-4 14-6 10-9 10-10 7-12 5-10 2h-13l-10-2-12-5-9-6-9-9-6-10-4-12-1-5v-20l4-14 7-12 8-9 11-7 12-5z" fill="#EDA77B"/>
<path transform="translate(721,424)" d="m0 0h16l1 1v120h-16l-1-4v-8l-11 9-8 4-9 2h-9l-9-2-11-6-9-9-6-12-2-8v-17l4-13 7-11 11-8 12-4h17l11 4 10 9 1-11v-35z" fill="#E8A694"/>
<path transform="translate(852,447)" d="m0 0h15l11 4 8 6 6 7 5 10 2 8v14l-4 13-7 10-9 8-10 4-12 1-10-2-8-4-10-9-5-8-3-9-1-6v-9l2-11 5-10 8-9 10-6z" fill="#F5F5F5"/>
<path transform="translate(483,457)" d="m0 0h8l14 3 9 6 6 9 3 9v61h-15l-1-4v-7l-10 8-12 5-5 1h-13l-11-4-8-7-4-11 1-11 4-8 7-6 10-4 13-2h26l-2-12-4-6-9-4h-10l-12 3-10 5h-3l-5-13 8-5 12-4z" fill="#72B7DA"/>
<path transform="translate(328,431)" d="m0 0h22l13 4 11 6 8 8-4 6-6 8-7-6-9-6-11-3h-13l-10 3-8 5-7 7-5 10-2 7v18l4 12 8 11 9 6 9 3h16l12-4 9-7 5-5 7 7 4 6-7 8-13 8-13 4-6 1h-12l-14-3-12-6-10-9-6-7-7-14-3-14v-13l3-13 6-12 7-9 8-7 16-8z" fill="#47B8D5"/>
<path transform="translate(546,459)" d="m0 0h18l1 57 3 9 6 5 3 1h14l10-5 5-6 3-11 1-50h17l1 1v84l-1 1h-15l-1-4v-8l-11 9-8 4-8 2h-11l-9-2-9-6-4-5-4-9-1-5z" fill="#A6B2D8"/>
<path transform="translate(165,431)" d="m0 0 5 1 24 14 5 3v39l-20 12-11 6-6-2-18-10-10-6v-39l21-12z" fill="#48B8D5"/>
<path transform="translate(121,516)" d="m0 0 6 2 24 14 3 2v39l-30 18-4-1-16-9-13-8-1-1v-38l24-14z" fill="#49B8D5"/>
<path transform="translate(212,518)" d="m0 0 10 1 8 3 10 9 5 10 1 4v12l-3 9-7 9-10 6-7 2h-10l-11-4-10-9-4-8-1-3v-17l5-10 6-7 12-6z" fill="#48B8D5"/>
<path transform="translate(686,473)" d="m0 0h14l10 5 6 7 3 6 1 5v15l-4 10-4 5-12 6h-15l-10-5-6-7-4-11v-15l4-9 7-8z" fill="#F5F5F5"/>
<path transform="translate(400,426)" d="m0 0h17l1 1 1 100 4 4h11l1 13-7 3h-16l-6-3-4-5-2-6z" fill="#49B8D5"/>
<path transform="translate(681,458)" d="m0 0h16l-3 1 2 10h2l1 3-1 1-16 2-8 5-6 8-2 6v15l4 11 5 6 10 5 7 2 1 9h-2l-1 5h-12l-14-7-9-9-6-12-2-8v-17l4-13 7-11 11-8z" fill="#D6A8B3"/>
<path transform="translate(765,433)" d="m0 0h16l1 1v111h-17l-1-1v-110z" fill="#EDA77B"/>
<path transform="translate(165,444)" d="m0 0 5 1 17 10 2 3-1 23-9 6-11 6-5-1-18-10v-26l13-8z" fill="#F5F5F5"/>
<path transform="translate(121,529)" d="m0 0 4 1 17 10 1 1v25l-9 6-12 6-20-12-1-1v-24l13-8z" fill="#F5F5F5"/>
<path transform="translate(546,459)" d="m0 0h18l1 57 3 9v3l-1 8 4 2 2 8-1 1-8-1-9-6-4-5-4-9-1-5z" fill="#74B6DA"/>
<path transform="translate(210,530)" d="m0 0h9l10 5 5 8 1 4v7l-3 8-8 7-6 2h-7l-8-3-7-8-2-5v-9l4-8 7-6z" fill="#F5F5F5"/>
<path transform="translate(478,506)" d="m0 0h27v12l-4 8-8 6-6 2h-15l-8-5-2-5 1-9 4-5z" fill="#F5F5F5"/>
<path transform="translate(458,500)" d="m0 0 5 1 4 8-2 5-2 4 1 9 2 5-3 5-2 8-5-1-8-7-4-11 1-11 4-8 7-6z" fill="#47B8D5"/>
<path transform="translate(466,460)" d="m0 0h7l7 6 2 5h-2v2l-12 3-10 5h-3l-5-13 8-5z" fill="#49B8D5"/>
<path transform="translate(650,483)" d="m0 0 3 2 3 11 1 12 1 14-2 9-4-5-4-10-1-5v-17z" fill="#A7B2D8"/>
<path transform="translate(196,498)" d="m0 0h3l6 14-5 2h-4l-5-12z" fill="#4DB8D6"/>
<path transform="translate(134,498)" d="m0 0 4 1 3 2-1 5-4 8-8-2 3-9z" fill="#4EB8D6"/>
<path transform="translate(162,537)" d="m0 0 14 1v8h-14z" fill="#4CB8D6"/>
<path transform="translate(455,512)" d="m0 0 6 2 2 1v9l1 5-3 2h-5l1-11z" fill="#73B7DB"/>
<path transform="translate(700,531)" d="m0 0h4l-1 4-5 1h-2v-4z" fill="#D7A7B2"/>
</svg>
